<mxfile host="65bd71144e">
    <diagram id="v4ZOIyf0MIKw6cOxQwG9" name="Page-1">
        <mxGraphModel dx="777" dy="610" grid="1" gridSize="10" guides="1" tooltips="1" connect="1" arrows="1" fold="1" page="1" pageScale="1" pageWidth="850" pageHeight="1100" math="0" shadow="0">
            <root>
                <mxCell id="0"/>
                <mxCell id="1" parent="0"/>
                <mxCell id="9" style="edgeStyle=none;html=1;" edge="1" parent="1" source="2" target="3">
                    <mxGeometry relative="1" as="geometry"/>
                </mxCell>
                <mxCell id="2" value="Исходный код" style="shape=note;whiteSpace=wrap;html=1;backgroundOutline=1;darkOpacity=0.05;fillColor=#dae8fc;strokeColor=#6c8ebf;fontSize=18;fontStyle=1" vertex="1" parent="1">
                    <mxGeometry x="40" y="120" width="200" height="100" as="geometry"/>
                </mxCell>
                <mxCell id="12" style="edgeStyle=none;html=1;" edge="1" parent="1" source="3" target="6">
                    <mxGeometry relative="1" as="geometry"/>
                </mxCell>
                <mxCell id="13" style="edgeStyle=none;html=1;" edge="1" parent="1" source="3" target="8">
                    <mxGeometry relative="1" as="geometry"/>
                </mxCell>
                <mxCell id="3" value="Статический анализ" style="rounded=0;whiteSpace=wrap;html=1;fillColor=#ffe6cc;strokeColor=#d79b00;strokeWidth=2;fontSize=18;fontStyle=1" vertex="1" parent="1">
                    <mxGeometry x="310" y="200" width="220" height="90" as="geometry"/>
                </mxCell>
                <mxCell id="11" style="edgeStyle=none;html=1;" edge="1" parent="1" source="4" target="3">
                    <mxGeometry relative="1" as="geometry"/>
                </mxCell>
                <mxCell id="4" value="Утверждения о программе" style="shape=note;whiteSpace=wrap;html=1;backgroundOutline=1;darkOpacity=0.05;fillColor=#f8cecc;strokeColor=#b85450;fontSize=18;fontStyle=1" vertex="1" parent="1">
                    <mxGeometry x="40" y="240" width="190" height="110" as="geometry"/>
                </mxCell>
                <mxCell id="10" style="edgeStyle=none;html=1;" edge="1" parent="1" source="5" target="3">
                    <mxGeometry relative="1" as="geometry"/>
                </mxCell>
                <mxCell id="5" value="Спецификация языка" style="shape=note;whiteSpace=wrap;html=1;backgroundOutline=1;darkOpacity=0.05;fillColor=#d5e8d4;strokeColor=#82b366;fontSize=18;fontStyle=1" vertex="1" parent="1">
                    <mxGeometry x="590" y="120" width="170" height="100" as="geometry"/>
                </mxCell>
                <mxCell id="6" value="Доказательства утверждений" style="shape=card;whiteSpace=wrap;html=1;fillColor=#fff2cc;strokeColor=#d6b656;fontSize=18;fontStyle=1" vertex="1" parent="1">
                    <mxGeometry x="330" y="330" width="180" height="100" as="geometry"/>
                </mxCell>
                <mxCell id="8" value="Ошибки" style="shape=card;whiteSpace=wrap;html=1;fillColor=#a20025;strokeColor=#6F0000;fontSize=18;fontStyle=1;fontColor=#ffffff;" vertex="1" parent="1">
                    <mxGeometry x="590" y="300" width="130" height="60" as="geometry"/>
                </mxCell>
            </root>
        </mxGraphModel>
    </diagram>
</mxfile>